<?xml version="1.0" encoding="UTF-8" standalone="no"?>
<svg width="5px" height="10px" viewBox="0 0 5 10" version="1.1" xmlns="http://www.w3.org/2000/svg" xmlns:xlink="http://www.w3.org/1999/xlink">
    <!-- Generator: Sketch 43.2 (39069) - http://www.bohemiancoding.com/sketch -->
    <title>Facebook</title>
    <desc>Created with Sketch.</desc>
    <defs></defs>
    <g id="1.1.-Home" stroke="none" stroke-width="1" fill="none" fill-rule="evenodd">
        <g id="Menu" transform="translate(-1203.000000, -677.000000)" fill-rule="nonzero" fill="#FFFFFF">
            <g id="menu" transform="translate(0.000000, -907.000000)">
                <g id="text-box" transform="translate(778.000000, 1114.000000)">
                    <g id="social" transform="translate(412.000000, 423.000000)">
                        <g id="fb" transform="translate(0.000000, 37.000000)">
                            <path d="M14,12 C14,12.2682921 14,14 14,14 L13,14 L13,16 L14,16 L14,20 L16,20 L16,16 L18,16 C18,16 17.9011634,14.939703 17.9683663,14 L16,14 L16,13 C16,12.8168317 16.7622772,12 17,12 L18,12 C18,11.7559653 17.9683663,10.7787376 17.9683663,10 L16.3341832,10 C14.0193564,9.99987624 14,11.7321782 14,12 Z" id="Facebook"></path>
                        </g>
                    </g>
                </g>
            </g>
        </g>
    </g>
</svg>