<?xml version="1.0" encoding="UTF-8" standalone="no"?>
<svg width="32px" height="48px" viewBox="0 0 32 48" version="1.1" xmlns="http://www.w3.org/2000/svg" xmlns:xlink="http://www.w3.org/1999/xlink">
    <!-- Generator: Sketch 43.2 (39069) - http://www.bohemiancoding.com/sketch -->
    <title>Page 1</title>
    <desc>Created with Sketch.</desc>
    <defs></defs>
    <g id="2.1.-Courses---Detail-" stroke="none" stroke-width="1" fill="none" fill-rule="evenodd" stroke-linecap="round" stroke-linejoin="round">
        <g id="Desktop" transform="translate(-1088.000000, -4670.000000)" stroke="#31C4D1" stroke-width="2">
            <g id="Body" transform="translate(0.000000, 800.000000)">
                <g id="skolitel" transform="translate(815.000000, 3846.000000)">
                    <g id="profile-photo" transform="translate(239.000000, 0.000000)">
                        <g id="Page-1" transform="translate(35.000000, 25.000000)">
                            <path d="M23.7852,29.8584 L23.7852,28.6144 C23.7852,28.3524 23.6252,28.1164 23.3832,28.0244 C20.5552,26.9304 17.4152,25.5744 17.1532,24.7284 L17.1532,23.8404 C17.7392,23.2404 18.2012,22.4044 18.4772,21.4244 C19.1292,20.9664 19.3012,20.0144 18.7512,19.3404 L18.7512,17.3544 C18.7512,15.3044 17.6112,13.9004 15.0012,13.9004 C12.4592,13.9004 11.2472,15.3044 11.2472,17.3544 L11.2472,19.3404 C10.7032,20.0124 10.8732,20.9644 11.5252,21.4244 C11.7992,22.4044 12.2612,23.2404 12.8492,23.8404 L12.8492,24.7284 C12.5852,25.5724 9.4452,26.9304 6.6192,28.0244 C6.3772,28.1164 6.2192,28.3524 6.2192,28.6144 L6.2192,29.8584" id="Stroke-1"></path>
                            <path d="M17.246,0 L12.756,0 C11.974,0 11.14,0.772 11.258,1.704 L12.152,8.788 C12.242,9.502 12.886,10 13.652,10 L16.35,10 C17.116,10 17.76,9.522 17.848,8.806 L18.744,1.672 C18.862,0.748 18,0 17.246,0 Z" id="Stroke-3"></path>
                            <path d="M7,8 L3.714,8 C1.746,8 0,9.5 0,11.47 L0,42.75 C0,44.718 1.746,46 3.714,46 L26.288,46 C28.256,46 30,44.718 30,42.75 L30,11.47 C30,9.5 28.256,8 26.288,8 L23,8" id="Stroke-5"></path>
                            <path d="M16.2188,40 L23.7848,40" id="Stroke-7"></path>
                            <path d="M6.2188,40 L10.2188,40" id="Stroke-9"></path>
                            <path d="M0,34 L30,34" id="Stroke-11"></path>
                        </g>
                    </g>
                </g>
            </g>
        </g>
    </g>
</svg>