<?xml version="1.0" encoding="UTF-8" standalone="no"?>
<svg width="9px" height="8px" viewBox="0 0 9 8" version="1.1" xmlns="http://www.w3.org/2000/svg" xmlns:xlink="http://www.w3.org/1999/xlink">
    <!-- Generator: Sketch 43.1 (39012) - http://www.bohemiancoding.com/sketch -->
    <title>LinkedIn</title>
    <desc>Created with Sketch.</desc>
    <defs></defs>
    <g id="1.1.-Home" stroke="none" stroke-width="1" fill="none" fill-rule="evenodd">
        <g id="Desktop" transform="translate(-845.000000, -3172.000000)" fill-rule="nonzero" fill="#FF8214">
            <g id="footer" transform="translate(0.000000, 2961.000000)">
                <g id="social-" transform="translate(214.000000, 190.000000)">
                    <g id="social" transform="translate(410.000000, 0.000000)">
                        <g id="in" transform="translate(210.000000, 10.000000)">
                            <path d="M19.3720663,15.9047937 L19.3720663,19 L17.5776614,19 L17.5776614,16.1120919 C17.5776614,15.3866259 17.3181201,14.8915236 16.668605,14.8915236 C16.1727826,14.8915236 15.8777184,15.2251863 15.7479088,15.5479487 C15.7005708,15.663335 15.6883859,15.8239376 15.6883859,15.9854551 L15.6883859,19 L13.8933776,19 C13.8933776,19 13.9175527,14.1088316 13.8933776,13.6020701 L15.6882108,13.6020701 L15.6882108,14.367205 C15.6845709,14.3729276 15.679841,14.3790979 15.6764152,14.3846453 L15.6882108,14.3846453 L15.6882108,14.367205 C15.9266719,13.999927 16.3525384,13.475258 17.3057601,13.475258 C18.4867373,13.4752386 19.3720663,14.2467579 19.3720663,15.9047937 Z M12.0157226,11 C11.4016525,11 11,11.4027815 11,11.9324529 C11,12.4505817 11.3900322,12.865587 11.9918978,12.865587 L12.0038881,12.865587 C12.6298509,12.865587 13.0191435,12.4506596 13.0191435,11.9324529 C13.0073479,11.4027815 12.6298509,11 12.0157226,11 Z M11.1066078,19 L12.9009348,19 L12.9009348,13.6020701 L11.1066078,13.6020701 L11.1066078,19 Z" id="LinkedIn"></path>
                        </g>
                    </g>
                </g>
            </g>
        </g>
    </g>
</svg>