<?xml version="1.0" encoding="utf-8"?>
<!-- Generator: Adobe Illustrator 15.0.0, SVG Export Plug-In . SVG Version: 6.00 Build 0)  -->
<!DOCTYPE svg PUBLIC "-//W3C//DTD SVG 1.1//EN" "http://www.w3.org/Graphics/SVG/1.1/DTD/svg11.dtd">
<svg version="1.1" id="Layer_1" xmlns="http://www.w3.org/2000/svg" xmlns:xlink="http://www.w3.org/1999/xlink" x="0px" y="0px"
	 width="17px" height="16px" viewBox="0 0 17 16" enable-background="new 0 0 17 16" xml:space="preserve">
<title>art4web</title>
<desc>Created with Sketch.</desc>
<g id="_x31_.1.-Home">
	<g id="Desktop" transform="translate(-1200.000000, -3169.000000)">
		<g id="footer" transform="translate(0.000000, 2961.000000)">
			<g id="link" transform="translate(1200.000000, 208.000000)">
				<g id="art4web">
					<path id="Fill-1" fill="#E1C8B4" d="M1.627,13.521c-0.673,0-1.218,0.535-1.218,1.197s0.545,1.199,1.218,1.199
						c0.673-0.001,1.218-0.537,1.218-1.199S2.3,13.521,1.627,13.521"/>
					<path id="Fill-3" fill="#E1C8B4" d="M15.971,0.61C15.587,0.233,15.059,0,14.475,0c-0.971,0-1.787,0.641-2.039,1.516
						C11.807,3.71,11.128,3.435,8.51,3.163c-0.191-0.02-0.385-0.03-0.582-0.03c-3.026,0-5.479,2.413-5.479,5.389
						c0,1.488,0.613,2.836,1.604,3.812c0.991,0.976,2.361,1.579,3.874,1.578c3.025,0.001,5.479-2.412,5.479-5.39
						c0-0.192-0.01-0.384-0.031-0.572C13.1,5.372,12.82,4.706,15.051,4.086c0.889-0.247,1.541-1.051,1.541-2.005
						C16.591,1.507,16.354,0.987,15.971,0.61"/>
				</g>
			</g>
		</g>
	</g>
</g>
</svg>
