<?xml version="1.0" encoding="utf-8"?>
<!-- Generator: Adobe Illustrator 20.1.0, SVG Export Plug-In . SVG Version: 6.00 Build 0)  -->
<svg version="1.1" id="Layer_1" xmlns="http://www.w3.org/2000/svg" xmlns:xlink="http://www.w3.org/1999/xlink" x="0px" y="0px"
	 viewBox="0 0 130 54" style="enable-background:new 0 0 130 54;" xml:space="preserve">
<style type="text/css">
	.st0{fill:#768795;}
	.st1{fill:url(#SVGID_1_);}
	.st2{fill:url(#SVGID_2_);}
</style>
<g>
	<polygon class="st0" points="1,22.3 1,0.6 3.4,0.6 3.4,20.1 9.6,20.1 9.6,22.3 	"/>
	<g>
		<path class="st0" d="M42,5.8v1.9h-2.3v-2c0-1.9-0.8-3.1-2.5-3.1c-1.7,0-2.5,1.2-2.5,3.1v11.5c0,2,0.8,3.1,2.5,3.1
			c1.8,0,2.5-1.2,2.5-3.1v-4.3h-2.2v-2.2H42V17c0,3.3-1.5,5.4-4.9,5.4c-3.3,0-4.9-2.2-4.9-5.4V5.8c0-3.3,1.5-5.4,4.9-5.4
			C40.5,0.4,42,2.5,42,5.8"/>
		<rect x="50.6" y="0.6" class="st0" width="2.4" height="21.7"/>
		<path class="st0" d="M70.5,5.8v0.6h-2.3V5.7c0-2-0.7-3.1-2.5-3.1c-1.7,0-2.5,1.1-2.5,3.1c0,4.9,7.3,5.3,7.3,11.4
			c0,3.3-1.6,5.4-4.9,5.4c-3.3,0-4.9-2.1-4.9-5.4v-1.2H63v1.4c0,2,0.8,3.1,2.5,3.1c1.7,0,2.5-1.1,2.5-3.1c0-4.8-7.2-5.3-7.2-11.4
			c0-3.3,1.5-5.4,4.8-5.4C68.9,0.4,70.5,2.5,70.5,5.8"/>
		<polygon class="st0" points="78.3,22.3 78.3,2.8 74.3,2.8 74.3,0.6 84.7,0.6 84.7,2.8 80.7,2.8 80.7,22.3 		"/>
		<rect x="91.6" y="0.6" class="st0" width="2.4" height="21.7"/>
		<path class="st0" d="M113,5.8v2h-2.3V5.7c0-1.9-0.8-3.1-2.5-3.1c-1.7,0-2.5,1.2-2.5,3.1v11.5c0,2,0.8,3.1,2.5,3.1
			c1.8,0,2.5-1.2,2.5-3.1v-2.8h2.3V17c0,3.3-1.5,5.4-4.9,5.4c-3.3,0-4.9-2.2-4.9-5.4V5.8c0-3.3,1.5-5.4,4.9-5.4
			C111.5,0.4,113,2.5,113,5.8"/>
		<path class="st0" d="M129.4,5.8v0.6h-2.3V5.7c0-2-0.7-3.1-2.5-3.1c-1.7,0-2.5,1.1-2.5,3.1c0,4.9,7.3,5.3,7.3,11.4
			c0,3.3-1.6,5.4-4.9,5.4c-3.3,0-4.9-2.1-4.9-5.4v-1.2h2.3v1.4c0,2,0.8,3.1,2.5,3.1c1.7,0,2.5-1.1,2.5-3.1c0-4.8-7.2-5.3-7.2-11.4
			c0-3.3,1.5-5.4,4.8-5.4C127.8,0.4,129.4,2.5,129.4,5.8"/>
		<path class="st0" d="M10.3,36.9v0.6H8v-0.7c0-2-0.7-3.1-2.5-3.1c-1.7,0-2.5,1.1-2.5,3.1c0,4.9,7.3,5.3,7.3,11.4
			c0,3.3-1.6,5.4-4.9,5.4c-3.3,0-4.9-2.1-4.9-5.4v-1.2h2.3v1.4c0,2,0.8,3.1,2.5,3.1c1.7,0,2.5-1.1,2.5-3.1c0-4.8-7.2-5.3-7.2-11.4
			c0-3.3,1.5-5.4,4.8-5.4C8.8,31.5,10.3,33.6,10.3,36.9"/>
		<polygon class="st0" points="32.6,53.4 32.6,31.7 35,31.7 35,51.2 41.2,51.2 41.2,53.4 		"/>
		<path class="st0" d="M49.3,48.3c0,2,0.8,3.1,2.5,3.1c1.7,0,2.5-1.2,2.5-3.1V31.7h2.3v16.4c0,3.3-1.5,5.5-4.9,5.5
			c-3.3,0-4.8-2.2-4.8-5.5V31.7h2.4V48.3z"/>
		<polygon class="st0" points="65.2,53.4 65.2,33.9 61.2,33.9 61.2,31.7 71.6,31.7 71.6,33.9 67.6,33.9 67.6,53.4 		"/>
		<rect x="78.3" y="31.7" class="st0" width="2.4" height="21.7"/>
		<path class="st0" d="M87.9,36.9c0-3.3,1.6-5.5,5-5.5c3.3,0,5,2.1,5,5.5v11.2c0,3.3-1.6,5.5-5,5.5c-3.3,0-5-2.2-5-5.5V36.9z
			 M90.3,48.3c0,2,0.8,3.1,2.6,3.1c1.8,0,2.6-1.1,2.6-3.1V36.8c0-1.9-0.8-3.1-2.6-3.1c-1.7,0-2.6,1.2-2.6,3.1V48.3z"/>
		<polygon class="st0" points="105.4,53.4 103.3,53.4 103.3,31.7 106.3,31.7 111.3,47.4 111.3,31.7 113.5,31.7 113.5,53.4 111,53.4 
			105.4,35.9 		"/>
		<path class="st0" d="M129.4,36.9v0.6h-2.3v-0.7c0-2-0.7-3.1-2.5-3.1c-1.7,0-2.5,1.1-2.5,3.1c0,4.9,7.3,5.3,7.3,11.4
			c0,3.3-1.6,5.4-4.9,5.4c-3.3,0-4.9-2.1-4.9-5.4v-1.2h2.3v1.4c0,2,0.8,3.1,2.5,3.1c1.7,0,2.5-1.1,2.5-3.1c0-4.8-7.2-5.3-7.2-11.4
			c0-3.3,1.5-5.4,4.8-5.4C127.8,31.5,129.4,33.6,129.4,36.9"/>
	</g>
	<g>
		<g>
			
				<linearGradient id="SVGID_1_" gradientUnits="userSpaceOnUse" x1="-18.568" y1="241.8027" x2="-18.568" y2="295.1477" gradientTransform="matrix(-1 0 0 -1 2.7263 295.3976)">
				<stop  offset="0" style="stop-color:#FF6903"/>
				<stop  offset="4.994560e-02" style="stop-color:#FF6E0B"/>
				<stop  offset="0.2638" style="stop-color:#FF6E0B"/>
				<stop  offset="0.4969" style="stop-color:#FC5412"/>
				<stop  offset="0.7914" style="stop-color:#FFB330"/>
				<stop  offset="0.9995" style="stop-color:#FFB330"/>
			</linearGradient>
			<path class="st1" d="M18.7,23.2c0.4,1.3,0.9,2.5,1.4,3.8l1.2,3.3c0.3,0.8,0.6,1.6,0.8,2.4c1,3.2,1.8,6.5,1.8,9.9v5.7
				c0,0.9-0.2,1.7-0.6,2.2c-0.4,0.6-1.1,0.9-2,0.9v2.2c1.4,0,2.5-0.4,3.3-1.1c1.1-0.9,1.7-2.5,1.7-4.4v-5.6c0-4-1-7.7-2.3-11.4
				c-0.5-1.4-1-2.7-1.5-4.1l-1.2-3.3c-0.3-0.7-0.5-1.5-0.8-2.3c-1-3.3-1.8-6.6-1.8-10V5.7c0-0.8,0.1-1.4,0.4-1.9
				c0.4-0.8,1.1-1.2,2.2-1.2V0.4c-2.4,0-3.9,1.1-4.5,2.9c-0.3,0.7-0.4,1.6-0.4,2.6v5.6C16.3,15.5,17.4,19.4,18.7,23.2z"/>
		</g>
		
			<linearGradient id="SVGID_2_" gradientUnits="userSpaceOnUse" x1="-18.568" y1="241.8027" x2="-18.568" y2="295.0226" gradientTransform="matrix(-1 0 0 -1 2.7263 295.3976)">
			<stop  offset="0" style="stop-color:#FF6903"/>
			<stop  offset="0.3006" style="stop-color:#FF740A"/>
			<stop  offset="0.6564" style="stop-color:#FF740A"/>
			<stop  offset="0.9311" style="stop-color:#FFB330"/>
			<stop  offset="0.9929" style="stop-color:#FFB330"/>
		</linearGradient>
		<path class="st2" d="M21.3,53.6v-2.2c-1.7,0-2.6-1.2-2.6-3.1v-5.7c0-4.3,1.2-8.3,2.6-12.3l1.2-3.3c1.9-5.1,3.8-10.1,3.8-15.6V5.8
			c0-3.3-1.6-5.5-5-5.5v2.2c1.7,0,2.6,1.2,2.6,3.1v5.7c0,4.3-1.2,8.3-2.6,12.3L20.1,27c-1.9,5.1-3.8,10.1-3.8,15.6v5.6
			C16.3,51.5,18,53.6,21.3,53.6z"/>
	</g>
</g>
</svg>
