<?xml version="1.0" encoding="utf-8"?>
<!-- Generator: Adobe Illustrator 15.0.0, SVG Export Plug-In . SVG Version: 6.00 Build 0)  -->
<!DOCTYPE svg PUBLIC "-//W3C//DTD SVG 1.1//EN" "http://www.w3.org/Graphics/SVG/1.1/DTD/svg11.dtd">
<svg version="1.1" id="Layer_1" xmlns="http://www.w3.org/2000/svg" xmlns:xlink="http://www.w3.org/1999/xlink" x="0px" y="0px"
	 width="54px" height="10.15px" viewBox="252 159.925 54 10.15" enable-background="new 252 159.925 54 10.15" xml:space="preserve"
	>
<g id="_x31_.1.-Home" display="none">
	<g id="Desktop" transform="translate(-215.000000, -3034.000000)" display="inline">
		<g id="footer" transform="translate(0.000000, 2961.000000)">
			<g id="copyright" transform="translate(215.000000, 51.000000)">
				
					<g id="symbol" transform="translate(27.000000, 27.000000) rotate(-270.000000) translate(-27.000000, -27.000000) translate(22.000000, 0.000000)">
					
						<linearGradient id="Combined-Shape_1_" gradientUnits="userSpaceOnUse" x1="355.5039" y1="244.5791" x2="355.5039" y2="245.5801" gradientTransform="matrix(0 -550.6271 -102.8487 0 25319.7188 195522.2656)">
						<stop  offset="0" style="stop-color:#FFB332"/>
						<stop  offset="0.1571" style="stop-color:#FFA227"/>
						<stop  offset="0.5038" style="stop-color:#FF8314"/>
						<stop  offset="0.7971" style="stop-color:#FF7007"/>
						<stop  offset="1" style="stop-color:#FF6903"/>
					</linearGradient>
					<path id="Combined-Shape" fill="url(#Combined-Shape_1_)" d="M215.635-66.9c0-13.434-1.033-26.867-3.1-40.3c0,0,0,0,0-1.033
						v-1.033c-6.199-40.3-20.666-79.567-35.133-117.8c-4.134,11.366-8.268,22.733-12.4,33.066
						c2.066,5.167,4.133,10.333,5.166,16.533c12.4,36.167,20.668,72.333,20.668,111.6v58.9c0,20.667-8.268,32.033-26.867,32.033
						c-18.6,0-25.833-12.4-25.833-32.033V-66.9c0-44.434,12.4-85.767,26.867-127.1c4.133-11.367,8.267-22.733,12.4-33.066
						c19.633-52.7,39.266-104.367,39.266-161.2v-57.867c0-34.1-17.566-56.833-51.666-56.833c-34.1,0-50.633,22.733-50.633,56.833
						l-1.033,58.9l0,0v10.333c2.066,51.667,20.667,101.268,38.233,150.867c4.134-11.367,8.267-22.733,12.4-33.066
						c-12.4-38.234-22.733-74.4-25.833-111.601c-1.033-5.166-1.033-9.3-1.033-14.467l1.033-62c0-20.666,8.267-32.033,26.867-32.033
						c18.6,0,26.867,12.4,26.867,32.033v59.934c0,44.434-12.4,85.767-26.867,127.101c-4.133,11.366-8.267,22.732-12.4,33.066
						C132.969-175.4,113.335-122.7,113.335-66.9v57.867c0,34.1,16.533,56.833,50.633,56.833c34.1,0,50.633-22.733,50.633-56.833
						V-66.9H215.635z"/>
					
						<linearGradient id="Shape_2_" gradientUnits="userSpaceOnUse" x1="377.124" y1="205.2051" x2="372.8785" y2="204.1897" gradientTransform="matrix(0 -160.92 -51.0746 0 10704.6455 60570.043)">
						<stop  offset="0" style="stop-color:#77E0C1;stop-opacity:0"/>
						<stop  offset="0.3939" style="stop-color:#76DEBF;stop-opacity:0.3939"/>
						<stop  offset="0.5359" style="stop-color:#73D8BA;stop-opacity:0.5359"/>
						<stop  offset="0.637" style="stop-color:#6ECCB0;stop-opacity:0.637"/>
						<stop  offset="0.7189" style="stop-color:#67BBA2;stop-opacity:0.7189"/>
						<stop  offset="0.789" style="stop-color:#5DA58F;stop-opacity:0.789"/>
						<stop  offset="0.851" style="stop-color:#518A79;stop-opacity:0.851"/>
						<stop  offset="0.9071" style="stop-color:#43695E;stop-opacity:0.9071"/>
						<stop  offset="0.9569" style="stop-color:#344540;stop-opacity:0.9569"/>
						<stop  offset="1" style="stop-color:#231F20"/>
					</linearGradient>
					<path id="Shape" opacity="0.4" fill="url(#Shape_2_)" fill-opacity="0.4" enable-background="new    " d="M170.168-177.467
						c12.4,36.167,20.668,72.333,20.668,111.6h24.799c0-14.467-1.033-26.867-3.1-41.333c0,0,0,0,0-1.033v-1.033
						c-6.199-40.3-20.666-79.567-35.133-117.8c-4.134,11.366-8.268,22.733-12.4,33.066
						C166.035-187.8,168.102-182.633,170.168-177.467z"/>
					
						<linearGradient id="Shape_3_" gradientUnits="userSpaceOnUse" x1="377.3994" y1="206.2637" x2="381.5077" y2="207.0166" gradientTransform="matrix(0 -160.92 -51.0746 0 10653.583 60409.793)">
						<stop  offset="0" style="stop-color:#77E0C1;stop-opacity:0"/>
						<stop  offset="0.3939" style="stop-color:#76DEBF;stop-opacity:0.3939"/>
						<stop  offset="0.5359" style="stop-color:#73D8BA;stop-opacity:0.5359"/>
						<stop  offset="0.637" style="stop-color:#6ECCB0;stop-opacity:0.637"/>
						<stop  offset="0.7189" style="stop-color:#67BBA2;stop-opacity:0.7189"/>
						<stop  offset="0.789" style="stop-color:#5DA58F;stop-opacity:0.789"/>
						<stop  offset="0.851" style="stop-color:#518A79;stop-opacity:0.851"/>
						<stop  offset="0.9071" style="stop-color:#43695E;stop-opacity:0.9071"/>
						<stop  offset="0.9569" style="stop-color:#344540;stop-opacity:0.9569"/>
						<stop  offset="1" style="stop-color:#231F20"/>
					</linearGradient>
					<path id="Shape_1_" opacity="0.2" fill="url(#Shape_3_)" fill-opacity="0.4" enable-background="new    " d="M138.135-370.7
						c-1.033-5.166-1.033-11.366-1.033-16.533h-23.767v10.333c2.066,51.667,20.667,101.268,38.233,150.867
						c4.134-11.367,8.267-22.733,12.4-33.066C151.568-297.334,141.235-333.5,138.135-370.7z"/>
				</g>
			</g>
		</g>
	</g>
</g>
<g>
	<g>
		
			<linearGradient id="SVGID_1_" gradientUnits="userSpaceOnUse" x1="-103.4556" y1="92.6797" x2="-103.4556" y2="87.4329" gradientTransform="matrix(1.898202e-15 10.3333 10.3333 -1.898202e-15 -651.6899 1234.0442)">
			<stop  offset="0" style="stop-color:#FF6903"/>
			<stop  offset="0.0499" style="stop-color:#FF6E0B"/>
			<stop  offset="0.2638" style="stop-color:#FF6E0B"/>
			<stop  offset="0.4969" style="stop-color:#FC5412"/>
			<stop  offset="0.7914" style="stop-color:#FFB330"/>
			<stop  offset="0.9995" style="stop-color:#FFB330"/>
		</linearGradient>
		<path fill="url(#SVGID_1_)" d="M275.143,167.639c1.319-0.406,2.538-0.913,3.857-1.421l3.35-1.218
			c0.812-0.305,1.624-0.609,2.437-0.812c3.248-1.015,6.598-1.827,10.049-1.827h5.785c0.914,0,1.726,0.203,2.233,0.609
			c0.609,0.406,0.914,1.117,0.914,2.03H306c0-1.421-0.406-2.538-1.116-3.35c-0.914-1.117-2.437-1.726-4.365-1.726h-5.684
			c-4.061,0-7.816,1.015-11.673,2.334c-1.421,0.507-2.741,1.015-4.162,1.522L275.65,165c-0.71,0.304-1.522,0.507-2.334,0.812
			c-3.35,1.016-6.699,1.827-10.15,1.827h-5.786c-0.812,0-1.421-0.102-1.929-0.406c-0.812-0.405-1.218-1.116-1.218-2.232H252
			c0,2.436,1.117,3.958,2.944,4.567c0.71,0.305,1.624,0.508,2.538,0.508h5.684C267.327,170.075,271.286,168.958,275.143,167.639z"/>
	</g>
	
		<linearGradient id="SVGID_2_" gradientUnits="userSpaceOnUse" x1="-103.4556" y1="92.6797" x2="-103.4556" y2="87.4452" gradientTransform="matrix(1.898202e-15 10.3333 10.3333 -1.898202e-15 -651.6899 1234.0442)">
		<stop  offset="0" style="stop-color:#FF6903"/>
		<stop  offset="0.3006" style="stop-color:#FF740A"/>
		<stop  offset="0.6564" style="stop-color:#FF740A"/>
		<stop  offset="0.9311" style="stop-color:#FFB330"/>
		<stop  offset="0.9929" style="stop-color:#FFB330"/>
	</linearGradient>
	<path fill="url(#SVGID_2_)" d="M306,165h-2.233c0,1.726-1.218,2.639-3.146,2.639h-5.785c-4.365,0-8.425-1.218-12.485-2.639
		l-3.35-1.218c-5.176-1.929-10.251-3.857-15.834-3.857h-5.684c-3.35,0-5.481,1.726-5.481,5.075h2.233
		c0-1.726,1.218-2.639,3.146-2.639h5.786c4.365,0,8.425,1.218,12.485,2.639l3.35,1.218c5.177,1.929,10.354,3.857,15.835,3.857h5.684
		C303.869,170.075,306,168.35,306,165z"/>
</g>
</svg>
