<?xml version="1.0" encoding="utf-8"?>
<!-- Generator: Adobe Illustrator 15.0.2, SVG Export Plug-In . SVG Version: 6.00 Build 0)  -->
<!DOCTYPE svg PUBLIC "-//W3C//DTD SVG 1.1//EN" "http://www.w3.org/Graphics/SVG/1.1/DTD/svg11.dtd">
<svg version="1.1" id="Vrstva_1" xmlns="http://www.w3.org/2000/svg" xmlns:xlink="http://www.w3.org/1999/xlink" x="0px" y="0px"
	 width="3208.309px" height="1983.334px" viewBox="0 0 3208.309 1983.334" enable-background="new 0 0 3208.309 1983.334"
	 xml:space="preserve">
<g>
	<linearGradient id="SVGID_1_" gradientUnits="userSpaceOnUse" x1="324.1133" y1="1997.0312" x2="3020.1133" y2="165.0314">
		<stop  offset="0" style="stop-color:#FF6E0B"/>
		<stop  offset="0.2638" style="stop-color:#FF6E0B"/>
		<stop  offset="0.4969" style="stop-color:#FC5412"/>
		<stop  offset="0.7914" style="stop-color:#FFB330"/>
		<stop  offset="1" style="stop-color:#FFB330"/>
	</linearGradient>
	<path fill="url(#SVGID_1_)" d="M2705.737,237.359l-309.486,150.945c-218.741,106.688-399.925,263.712-570.781,434.642
		c-62.869,62.623-124.804,127.155-186.271,192.647l-148.354,154.032c-34.077,34.377-69.107,69.22-103.652,102.641
		c-151.597,144.96-314.009,277.439-505.05,370.617L565.97,1797.089l-296.113,144.425l64.362,131.961l302.799-147.687
		l309.486-150.945c225.428-109.948,410.477-273.594,586.131-449.228c58.07-57.915,114.253-117.277,171.391-177.104l148.354-154.032
		c37.432-37.193,73.909-73.927,111.809-110.166c149.195-142.605,309.677-271.775,496.896-363.091l316.172-154.207
		c1.933-3.31,291.358-144.473,294.69-144.914l-64.36-131.961L2705.737,237.359z"/>
</g>
</svg>
